<svg xmlns="http://www.w3.org/2000/svg" version="1.1" xmlns:xlink="http://www.w3.org/1999/xlink" xmlns:svgjs="http://svgjs.dev/svgjs" viewBox="0 0 26.608201816098475 8.12891925142825"><g transform="matrix(1,0,0,1,7.723227264391596,1.623663509747328)"><rect width="26.608201816098475" height="26.608201816098475" x="-7.723227264391597" y="-10.86330479208244" fill="#ffffff"></rect><g><path d=" M 0.19552001953125 0.0010290527343750355 L 1.077418212890625 0.0010290527343750355 Q 1.248240966796875 0.0010290527343750355 1.3763580322265625 0.03704589843749995 Q 1.50447509765625 0.07306274414062508 1.5904010009765623 0.1378930664062501 Q 1.676326904296875 0.20272338867187512 1.7195471191406249 0.29328002929687513 Q 1.762767333984375 0.38383666992187493 1.762767333984375 0.4929162597656249 Q 1.762767333984375 0.62772216796875 1.698966064453125 0.7321710205078125 Q 1.635164794921875 0.836619873046875 1.509620361328125 0.898363037109375 L 1.830684814453125 1.53123046875 L 1.15871337890625 1.53123046875 L 0.91585693359375 0.9755419921875 L 0.7903125 0.9755419921875 L 0.7903125 1.530201416015625 L 0.19552001953125 1.530201416015625 L 0.19552001953125 0.0010290527343750355 M 0.826329345703125 0.789283447265625 Q 0.89939208984375 0.789283447265625 0.95701904296875 0.768702392578125 Q 1.01464599609375 0.748121337890625 1.054779052734375 0.7105609130859375 Q 1.094912109375 0.67300048828125 1.116522216796875 0.6210333251953125 Q 1.13813232421875 0.569066162109375 1.13813232421875 0.507322998046875 Q 1.13813232421875 0.44557983398437506 1.116522216796875 0.39361267089843754 Q 1.094912109375 0.3416455078125 1.054779052734375 0.30408508300781256 Q 1.01464599609375 0.2665246582031251 0.95701904296875 0.24594360351562505 Q 0.89939208984375 0.225362548828125 0.826329345703125 0.225362548828125 L 0.791341552734375 0.225362548828125 L 0.7903125 0.789283447265625 L 0.826329345703125 0.789283447265625 M 2.39357666015625 0.23565307617187492 L 1.95725830078125 0.23565307617187492 L 1.95725830078125 0 L 3.4246875 0 L 3.4246875 0.23565307617187492 L 2.988369140625 0.23565307617187492 L 2.988369140625 1.530201416015625 L 2.39357666015625 1.530201416015625 L 2.39357666015625 0.23565307617187492 M 0.464102783203125 2.2120517578124996 L 0.027784423828124998 2.2120517578124996 L 0.027784423828124998 1.976398681640625 L 1.4952136230468749 1.976398681640625 L 1.4952136230468749 2.2120517578124996 L 1.058895263671875 2.2120517578124996 L 1.058895263671875 3.50660009765625 L 0.464102783203125 3.50660009765625 L 0.464102783203125 2.2120517578124996 M 1.72880859375 1.977427734375 L 3.0212988281249995 1.977427734375 L 3.0212988281249995 2.2130808105468747 L 2.324630126953125 2.2130808105468747 L 2.32360107421875 2.6257309570312497 L 2.856650390625 2.6257309570312497 L 2.856650390625 2.861384033203125 L 2.32360107421875 2.861384033203125 L 2.32360107421875 3.2709470214843748 L 3.0212988281249995 3.2709470214843748 L 3.0212988281249995 3.50660009765625 L 1.72880859375 3.50660009765625 L 1.72880859375 1.977427734375 M 3.2476904296875 2.74304296875 Q 3.2476904296875 2.63396337890625 3.275989379882813 2.5326016845703125 Q 3.304288330078125 2.431239990234375 3.358828125 2.3437705078124997 Q 3.413367919921875 2.2563010253906253 3.4926049804687502 2.184267333984375 Q 3.571842041015625 2.1122336425781247 3.6732037353515627 2.0607810058593747 Q 3.7745654296875 2.0093283691406247 3.897022705078125 1.9810294189453124 Q 4.01947998046875 1.95273046875 4.160460205078125 1.95273046875 Q 4.251016845703125 1.95273046875 4.3338555908203125 1.964050048828125 Q 4.4166943359375 1.97536962890625 4.489757080078125 1.9954361572265624 Q 4.56281982421875 2.015502685546875 4.625077514648438 2.0417435302734375 Q 4.687335205078125 2.067984375 4.7377587890625 2.0967978515625 L 4.64926025390625 2.2696787109375 Q 4.59163330078125 2.2418942871093748 4.518056030273438 2.2228568115234375 Q 4.444478759765625 2.2038193359375002 4.36524169921875 2.2038193359375002 Q 4.2592492675781255 2.2038193359375002 4.168692626953125 2.2418942871093748 Q 4.0781359863281255 2.27996923828125 4.012276611328125 2.34994482421875 Q 3.9464172363281254 2.4199204101562497 3.9088568115234374 2.5192239990234375 Q 3.87129638671875 2.618527587890625 3.87129638671875 2.742013916015625 Q 3.87129638671875 2.86447119140625 3.90834228515625 2.9637747802734373 Q 3.9453881835937503 3.0630783691406247 4.010733032226563 3.1335684814453124 Q 4.076077880859375 3.20405859375 4.166119995117188 3.2426480712890626 Q 4.256162109375 3.281237548828125 4.36112548828125 3.281237548828125 Q 4.43521728515625 3.281237548828125 4.50930908203125 3.2632291259765625 Q 4.58340087890625 3.2452207031249998 4.6451440429687505 3.215378173828125 L 4.733642578125 3.388259033203125 Q 4.683218994140625 3.4181015625 4.621475830078126 3.443827880859375 Q 4.559732666015625 3.46955419921875 4.487698974609375 3.4896207275390623 Q 4.415665283203126 3.509687255859375 4.333341064453125 3.5210068359375 Q 4.251016845703125 3.532326416015625 4.160460205078125 3.532326416015625 Q 3.94950439453125 3.532326416015625 3.7802252197265624 3.4700687255859375 Q 3.6109460449218753 3.40781103515625 3.4926049804687502 3.3002750244140624 Q 3.374263916015625 3.1927390136718747 3.3109771728515627 3.0491861572265626 Q 3.2476904296875 2.90563330078125 3.2476904296875 2.74304296875 M 4.9847314453125 1.977427734375 L 5.57952392578125 1.977427734375 L 5.57952392578125 2.618527587890625 L 6.018929443359375 2.618527587890625 L 6.018929443359375 1.977427734375 L 6.6147509765625 1.977427734375 L 6.613721923828125 3.50660009765625 L 6.018929443359375 3.50660009765625 L 6.018929443359375 2.8541806640625 L 5.57952392578125 2.8541806640625 L 5.57952392578125 3.50660009765625 L 4.9847314453125 3.50660009765625 L 4.9847314453125 1.977427734375 M 7.016081542968749 1.977427734375 L 7.388598632812499 1.977427734375 L 8.358995361328125 2.7924375 L 8.360024414062499 1.977427734375 L 8.586416015625 1.977427734375 L 8.586416015625 3.50660009765625 L 8.21389892578125 3.50660009765625 L 7.24247314453125 2.694677490234375 L 7.24247314453125 3.50660009765625 L 7.016081542968749 3.50660009765625 L 7.016081542968749 1.977427734375 M 8.898218994140624 2.7389267578125 Q 8.898218994140624 2.565016845703125 8.953787841796874 2.4204349365234377 Q 9.009356689453124 2.27585302734375 9.11946533203125 2.171918701171875 Q 9.229573974609375 2.067984375 9.394222412109375 2.0103574218749998 Q 9.558870849609375 1.95273046875 9.777030029296874 1.95273046875 Q 9.995189208984375 1.95273046875 10.159837646484375 2.0103574218749998 Q 10.324486083984375 2.067984375 10.4345947265625 2.171918701171875 Q 10.544703369140624 2.27585302734375 10.600272216796874 2.4204349365234377 Q 10.655841064453124 2.565016845703125 10.655841064453124 2.7389267578125 Q 10.655841064453124 2.914894775390625 10.600272216796874 3.061020263671875 Q 10.544703369140624 3.207145751953125 10.4345947265625 3.311080078125 Q 10.324486083984375 3.415014404296875 10.159837646484375 3.472641357421875 Q 9.995189208984375 3.530268310546875 9.777030029296874 3.530268310546875 Q 9.558870849609375 3.530268310546875 9.394222412109375 3.472641357421875 Q 9.229573974609375 3.415014404296875 9.11946533203125 3.311080078125 Q 9.009356689453124 3.207145751953125 8.953787841796874 3.061020263671875 Q 8.898218994140624 2.914894775390625 8.898218994140624 2.7389267578125 M 9.777030029296874 3.31725439453125 Q 9.838773193359375 3.31725439453125 9.886109619140624 3.2956442871093747 Q 9.933446044921874 3.2740341796875 9.9653466796875 3.211261962890625 Q 9.997247314453125 3.14848974609375 10.013712158203125 3.0352939453125 Q 10.030177001953124 2.92209814453125 10.030177001953124 2.7389267578125 Q 10.030177001953124 2.5578134765625 10.013712158203125 2.4456467285156247 Q 9.997247314453125 2.3334799804687503 9.9653466796875 2.27173681640625 Q 9.933446044921874 2.20999365234375 9.886109619140624 2.1883835449218747 Q 9.838773193359375 2.1667734375 9.777030029296874 2.1667734375 Q 9.715286865234376 2.1667734375 9.667435913085937 2.1883835449218747 Q 9.6195849609375 2.20999365234375 9.587684326171875 2.27173681640625 Q 9.55578369140625 2.3334799804687503 9.539318847656249 2.4456467285156247 Q 9.52285400390625 2.5578134765625 9.52285400390625 2.7389267578125 Q 9.52285400390625 2.92209814453125 9.539318847656249 3.0352939453125 Q 9.55578369140625 3.14848974609375 9.587684326171875 3.211261962890625 Q 9.6195849609375 3.2740341796875 9.667435913085937 3.2956442871093747 Q 9.715286865234376 3.31725439453125 9.777030029296874 3.31725439453125 M 10.967644042968749 1.977427734375 L 11.563465576171874 1.977427734375 L 11.5624365234375 3.2709470214843748 L 12.146938476562498 3.2709470214843748 L 12.146938476562498 3.50660009765625 L 10.967644042968749 3.50660009765625 L 10.967644042968749 1.977427734375 M 12.311586914062499 2.7389267578125 Q 12.311586914062499 2.565016845703125 12.367155761718749 2.4204349365234377 Q 12.422724609374999 2.27585302734375 12.532833251953125 2.171918701171875 Q 12.64294189453125 2.067984375 12.80759033203125 2.0103574218749998 Q 12.97223876953125 1.95273046875 13.190397949218749 1.95273046875 Q 13.40855712890625 1.95273046875 13.57320556640625 2.0103574218749998 Q 13.73785400390625 2.067984375 13.847962646484374 2.171918701171875 Q 13.958071289062499 2.27585302734375 14.013640136718749 2.4204349365234377 Q 14.069208984374999 2.565016845703125 14.069208984374999 2.7389267578125 Q 14.069208984374999 2.914894775390625 14.013640136718749 3.061020263671875 Q 13.958071289062499 3.207145751953125 13.847962646484374 3.311080078125 Q 13.73785400390625 3.415014404296875 13.57320556640625 3.472641357421875 Q 13.40855712890625 3.530268310546875 13.190397949218749 3.530268310546875 Q 12.97223876953125 3.530268310546875 12.80759033203125 3.472641357421875 Q 12.64294189453125 3.415014404296875 12.532833251953125 3.311080078125 Q 12.422724609374999 3.207145751953125 12.367155761718749 3.061020263671875 Q 12.311586914062499 2.914894775390625 12.311586914062499 2.7389267578125 M 13.190397949218749 3.31725439453125 Q 13.25214111328125 3.31725439453125 13.299477539062499 3.2956442871093747 Q 13.346813964843749 3.2740341796875 13.378714599609374 3.211261962890625 Q 13.410615234375 3.14848974609375 13.427080078125 3.0352939453125 Q 13.443544921874999 2.92209814453125 13.443544921874999 2.7389267578125 Q 13.443544921874999 2.5578134765625 13.427080078125 2.4456467285156247 Q 13.410615234375 2.3334799804687503 13.378714599609374 2.27173681640625 Q 13.346813964843749 2.20999365234375 13.299477539062499 2.1883835449218747 Q 13.25214111328125 2.1667734375 13.190397949218749 2.1667734375 Q 13.12865478515625 2.1667734375 13.080803833007812 2.1883835449218747 Q 13.032952880859375 2.20999365234375 13.00105224609375 2.27173681640625 Q 12.969151611328124 2.3334799804687503 12.952686767578124 2.4456467285156247 Q 12.936221923828125 2.5578134765625 12.936221923828125 2.7389267578125 Q 12.936221923828125 2.92209814453125 12.952686767578124 3.0352939453125 Q 12.969151611328124 3.14848974609375 13.00105224609375 3.211261962890625 Q 13.032952880859375 3.2740341796875 13.080803833007812 3.2956442871093747 Q 13.12865478515625 3.31725439453125 13.190397949218749 3.31725439453125 M 14.291484374999998 2.74304296875 Q 14.291484374999998 2.63396337890625 14.319783325195312 2.5326016845703125 Q 14.348082275390624 2.431239990234375 14.402622070312498 2.3437705078124997 Q 14.457161865234374 2.2563010253906253 14.53639892578125 2.184267333984375 Q 14.615635986328124 2.1122336425781247 14.716997680664061 2.0607810058593747 Q 14.818359374999998 2.0093283691406247 14.940816650390623 1.9810294189453124 Q 15.063273925781248 1.95273046875 15.204254150390623 1.95273046875 Q 15.294810791015623 1.95273046875 15.377649536132811 1.964050048828125 Q 15.460488281249999 1.97536962890625 15.533551025390624 1.9954361572265624 Q 15.606613769531249 2.015502685546875 15.668871459960936 2.0417435302734375 Q 15.731129150390624 2.067984375 15.781552734374998 2.0967978515625 L 15.693054199218748 2.2696787109375 Q 15.635427246093748 2.2418942871093748 15.561849975585936 2.2228568115234375 Q 15.488272705078124 2.2038193359375002 15.409035644531249 2.2038193359375002 Q 15.303043212890623 2.2038193359375002 15.212486572265624 2.2418942871093748 Q 15.121929931640624 2.27996923828125 15.056070556640623 2.34994482421875 Q 14.990211181640623 2.4199204101562497 14.952650756835936 2.5192239990234375 Q 14.915090332031248 2.618527587890625 14.915090332031248 2.742013916015625 Q 14.915090332031248 2.86447119140625 14.95213623046875 2.9637747802734373 Q 14.989182128906249 3.0630783691406247 15.05452697753906 3.1335684814453124 Q 15.119871826171874 3.20405859375 15.209913940429686 3.2426480712890626 Q 15.299956054687499 3.281237548828125 15.404919433593749 3.281237548828125 L 15.404919433593749 2.7636240234375 L 16.004857177734372 2.7636240234375 L 15.897835693359374 2.958114990234375 L 15.897835693359374 3.3738522949218748 L 15.898864746093748 3.375910400390625 Q 15.848441162109374 3.4057529296875 15.774349365234373 3.433537353515625 Q 15.700257568359373 3.46132177734375 15.609186401367186 3.4834464111328125 Q 15.518115234375 3.505571044921875 15.4152099609375 3.51894873046875 Q 15.3123046875 3.532326416015625 15.204254150390623 3.532326416015625 Q 14.993298339843749 3.532326416015625 14.824019165039061 3.4700687255859375 Q 14.654739990234374 3.40781103515625 14.53639892578125 3.3002750244140624 Q 14.418057861328123 3.1927390136718747 14.354771118164061 3.0491861572265626 Q 14.291484374999998 2.90563330078125 14.291484374999998 2.74304296875 M 16.581126708984375 3.075427001953125 L 16.062484130859374 1.977427734375 L 16.71387451171875 1.977427734375 L 17.0905078125 2.76568212890625 L 17.394078369140626 1.977427734375 L 17.663690185546876 1.977427734375 L 17.206790771484375 3.075427001953125 L 17.206790771484375 3.50660009765625 L 16.581126708984375 3.50660009765625 L 16.581126708984375 3.075427001953125" fill="#102036" fill-rule="nonzero"></path></g><g><path d=" M 0.7513380000000001 4.660894231933594 Q 0.7513380000000001 4.724812231933593 0.718776 4.774861231933594 Q 0.686214 4.824910231933593 0.631341 4.853251231933593 Q 0.576468 4.881592231933594 0.511344 4.881592231933594 L 0.107334 4.881592231933594 L 0.107334 4.025332231933594 L 0.519786 4.025332231933594 Q 0.580086 4.025332231933594 0.624105 4.057291231933593 Q 0.668124 4.089250231933594 0.6916410000000001 4.1392992319335935 Q 0.7151580000000001 4.189348231933594 0.7151580000000001 4.243618231933594 Q 0.7151580000000001 4.307536231933594 0.682596 4.361806231933594 Q 0.650034 4.4160762319335936 0.5921460000000001 4.442608231933594 Q 0.665712 4.464316231933593 0.7085250000000001 4.523410231933593 Q 0.7513380000000001 4.582504231933593 0.7513380000000001 4.660894231933594 M 0.666918 4.6464222319335935 Q 0.666918 4.603006231933594 0.647622 4.566223231933593 Q 0.628326 4.529440231933593 0.595161 4.506526231933593 Q 0.561996 4.483612231933593 0.519786 4.483612231933593 L 0.191754 4.483612231933593 L 0.191754 4.808026231933594 L 0.511344 4.808026231933594 Q 0.55476 4.808026231933594 0.589734 4.785112231933594 Q 0.624708 4.762198231933594 0.645813 4.725415231933594 Q 0.666918 4.688632231933593 0.666918 4.6464222319335935 M 0.191754 4.098898231933593 L 0.191754 4.414870231933594 L 0.486018 4.414870231933594 Q 0.528228 4.414870231933594 0.56079 4.3925592319335935 Q 0.593352 4.370248231933593 0.612648 4.3340682319335935 Q 0.6319440000000001 4.297888231933594 0.6319440000000001 4.2568842319335936 Q 0.6319440000000001 4.213468231933594 0.613854 4.177891231933594 Q 0.5957640000000001 4.142314231933594 0.564408 4.120606231933594 Q 0.533052 4.098898231933593 0.493254 4.098898231933593 L 0.191754 4.098898231933593 M 1.49787084375 4.806820231933593 L 1.49787084375 4.881592231933594 L 0.9226088437500001 4.881592231933594 L 0.9226088437500001 4.025332231933594 L 1.4870168437500002 4.025332231933594 L 1.4870168437500002 4.100104231933593 L 1.0070288437500001 4.100104231933593 L 1.0070288437500001 4.408840231933594 L 1.4255108437500001 4.408840231933594 L 1.4255108437500001 4.479994231933594 L 1.0070288437500001 4.479994231933594 L 1.0070288437500001 4.806820231933593 L 1.49787084375 4.806820231933593 M 2.1647652890625 4.185730231933594 Q 2.1466752890625003 4.165228231933593 2.1225552890625003 4.148947231933594 Q 2.0984352890625 4.132666231933594 2.0682852890625 4.120606231933594 Q 2.0381352890625 4.108546231933594 2.0037642890625 4.101310231933594 Q 1.9693932890625 4.094074231933593 1.9308012890625001 4.094074231933593 Q 1.8186432890625 4.094074231933593 1.7661822890625 4.136887231933594 Q 1.7137212890625 4.179700231933594 1.7137212890625 4.253266231933593 Q 1.7137212890625 4.303918231933594 1.7384442890625 4.332862231933594 Q 1.7631672890625 4.361806231933594 1.8162312890625 4.379896231933594 Q 1.8692952890625 4.397986231933594 1.9513032890625 4.417282231933593 Q 2.0429592890625 4.436578231933593 2.1092892890625 4.463110231933594 Q 2.1756192890625003 4.489642231933594 2.2117992890625002 4.534867231933593 Q 2.2479792890625 4.580092231933594 2.2479792890625 4.657276231933594 Q 2.2479792890625 4.716370231933594 2.2250652890625 4.759786231933593 Q 2.2021512890625 4.803202231933594 2.1611472890625 4.832146231933594 Q 2.1201432890625 4.861090231933594 2.0634612890625 4.874959231933594 Q 2.0067792890625 4.888828231933593 1.9392432890625 4.888828231933593 Q 1.8729132890625002 4.888828231933593 1.8120102890625 4.874959231933594 Q 1.7511072890625001 4.861090231933594 1.6968372890625 4.833955231933594 Q 1.6425672890625 4.806820231933593 1.5955332890625 4.7646102319335935 L 1.6377432890625 4.695868231933593 Q 1.6606572890625 4.719988231933594 1.6926162890625 4.741093231933593 Q 1.7245752890625001 4.762198231933594 1.7637702890625 4.779082231933594 Q 1.8029652890625 4.795966231933593 1.8481902890625002 4.805011231933594 Q 1.8934152890625 4.814056231933594 1.9416552890625 4.814056231933594 Q 2.0441652890625 4.814056231933594 2.1014502890625 4.776670231933593 Q 2.1587352890625002 4.739284231933594 2.1587352890625002 4.665718231933593 Q 2.1587352890625002 4.612654231933593 2.1297912890625 4.580695231933594 Q 2.1008472890625 4.548736231933594 2.0429592890625 4.5282342319335935 Q 1.9850712890625002 4.507732231933594 1.9006512890625 4.488436231933593 Q 1.8114072890625001 4.467934231933594 1.7499012890625 4.442608231933594 Q 1.6883952890625 4.417282231933593 1.6576422890625 4.375675231933593 Q 1.6268892890625 4.3340682319335935 1.6268892890625 4.265326231933594 Q 1.6268892890625 4.185730231933594 1.6660842890625 4.130857231933594 Q 1.7052792890625001 4.075984231933593 1.7740212890625 4.047643231933593 Q 1.8427632890625 4.019302231933594 1.9320072890625002 4.019302231933594 Q 1.9886892890625 4.019302231933594 2.0375322890625 4.030759231933594 Q 2.0863752890625 4.042216231933594 2.1279822890625 4.063924231933593 Q 2.1695892890625 4.085632231933594 2.2057692890625002 4.118194231933593 L 2.1647652890625 4.185730231933594 M 3.0150170771484377 4.100104231933593 L 2.7098990771484375 4.100104231933593 L 2.7098990771484375 4.881592231933594 L 2.6254790771484373 4.881592231933594 L 2.6254790771484373 4.100104231933593 L 2.3203610771484375 4.100104231933593 L 2.3203610771484375 4.025332231933594 L 3.0150170771484377 4.025332231933594 L 3.0150170771484377 4.100104231933593 M 4.012387321289062 4.100104231933593 L 3.7072693212890626 4.100104231933593 L 3.7072693212890626 4.881592231933594 L 3.6228493212890625 4.881592231933594 L 3.6228493212890625 4.100104231933593 L 3.3177313212890627 4.100104231933593 L 3.3177313212890627 4.025332231933594 L 4.012387321289062 4.025332231933594 L 4.012387321289062 4.100104231933593 M 4.7275276552734375 4.806820231933593 L 4.7275276552734375 4.881592231933594 L 4.152265655273437 4.881592231933594 L 4.152265655273437 4.025332231933594 L 4.716673655273437 4.025332231933594 L 4.716673655273437 4.100104231933593 L 4.236685655273438 4.100104231933593 L 4.236685655273438 4.408840231933594 L 4.655167655273438 4.408840231933594 L 4.655167655273438 4.479994231933594 L 4.236685655273438 4.479994231933594 L 4.236685655273438 4.806820231933593 L 4.7275276552734375 4.806820231933593 M 4.825251931640625 4.447432231933593 Q 4.825251931640625 4.3690422319335935 4.852386931640624 4.293667231933593 Q 4.879521931640625 4.218292231933594 4.931379931640625 4.156183231933594 Q 4.983237931640624 4.094074231933593 5.059215931640624 4.057291231933593 Q 5.135193931640624 4.020508231933594 5.231673931640625 4.020508231933594 Q 5.3462439316406245 4.020508231933594 5.427648931640625 4.072969231933594 Q 5.509053931640625 4.125430231933594 5.547645931640624 4.207438231933594 L 5.481315931640625 4.248442231933594 Q 5.453577931640624 4.191760231933594 5.4113679316406245 4.158595231933593 Q 5.369157931640625 4.125430231933594 5.321520931640625 4.110958231933593 Q 5.273883931640625 4.096486231933594 5.226849931640625 4.096486231933594 Q 5.149665931640625 4.096486231933594 5.090571931640625 4.1272392319335935 Q 5.031477931640625 4.157992231933593 4.991076931640625 4.209247231933594 Q 4.950675931640625 4.260502231933594 4.930173931640624 4.323817231933593 Q 4.9096719316406245 4.3871322319335935 4.9096719316406245 4.452256231933593 Q 4.9096719316406245 4.523410231933593 4.9337919316406245 4.588534231933593 Q 4.957911931640624 4.653658231933593 5.001327931640624 4.703707231933594 Q 5.044743931640625 4.753756231933593 5.103234931640625 4.783303231933593 Q 5.161725931640625 4.812850231933593 5.230467931640624 4.812850231933593 Q 5.278707931640625 4.812850231933593 5.329359931640624 4.795966231933593 Q 5.380011931640625 4.779082231933594 5.424030931640624 4.744108231933594 Q 5.468049931640625 4.709134231933594 5.494581931640624 4.653658231933593 L 5.5645299316406245 4.689838231933593 Q 5.537997931640625 4.753756231933593 5.482521931640624 4.798378231933594 Q 5.427045931640625 4.843000231933593 5.358906931640624 4.865914231933593 Q 5.290767931640625 4.888828231933593 5.225643931640624 4.888828231933593 Q 5.137605931640625 4.888828231933593 5.064039931640624 4.850839231933594 Q 4.990473931640625 4.812850231933593 4.936806931640625 4.749535231933594 Q 4.883139931640624 4.686220231933594 4.854195931640625 4.607227231933593 Q 4.825251931640625 4.5282342319335935 4.825251931640625 4.447432231933593 M 6.396638721679687 4.025332231933594 L 6.396638721679687 4.881592231933594 L 6.313424721679687 4.881592231933594 L 6.313424721679687 4.4812002319335935 L 5.805698721679687 4.4812002319335935 L 5.805698721679687 4.881592231933594 L 5.7212787216796865 4.881592231933594 L 5.7212787216796865 4.025332231933594 L 5.805698721679687 4.025332231933594 L 5.805698721679687 4.406428231933593 L 6.313424721679687 4.406428231933593 L 6.313424721679687 4.025332231933594 L 6.396638721679687 4.025332231933594 M 6.942933755859374 4.881592231933594 L 6.942933755859374 4.025332231933594 L 7.027353755859375 4.025332231933594 L 7.027353755859375 4.881592231933594 L 6.942933755859374 4.881592231933594 M 7.3384846787109375 4.1809062319335935 L 7.3384846787109375 4.881592231933594 L 7.254064678710937 4.881592231933594 L 7.254064678710937 4.025332231933594 L 7.324012678710937 4.025332231933594 L 7.886008678710937 4.739284231933594 L 7.886008678710937 4.026538231933594 L 7.970428678710937 4.026538231933594 L 7.970428678710937 4.881592231933594 L 7.892038678710937 4.881592231933594 L 7.3384846787109375 4.1809062319335935 M 8.697613702148438 4.185730231933594 Q 8.679523702148437 4.165228231933593 8.655403702148437 4.148947231933594 Q 8.631283702148437 4.132666231933594 8.601133702148436 4.120606231933594 Q 8.570983702148437 4.108546231933594 8.536612702148437 4.101310231933594 Q 8.502241702148437 4.094074231933593 8.463649702148437 4.094074231933593 Q 8.351491702148437 4.094074231933593 8.299030702148437 4.136887231933594 Q 8.246569702148436 4.179700231933594 8.246569702148436 4.253266231933593 Q 8.246569702148436 4.303918231933594 8.271292702148436 4.332862231933594 Q 8.296015702148438 4.361806231933594 8.349079702148437 4.379896231933594 Q 8.402143702148436 4.397986231933594 8.484151702148436 4.417282231933593 Q 8.575807702148436 4.436578231933593 8.642137702148437 4.463110231933594 Q 8.708467702148436 4.489642231933594 8.744647702148438 4.534867231933593 Q 8.780827702148438 4.580092231933594 8.780827702148438 4.657276231933594 Q 8.780827702148438 4.716370231933594 8.757913702148437 4.759786231933593 Q 8.734999702148437 4.803202231933594 8.693995702148436 4.832146231933594 Q 8.652991702148437 4.861090231933594 8.596309702148437 4.874959231933594 Q 8.539627702148437 4.888828231933593 8.472091702148436 4.888828231933593 Q 8.405761702148437 4.888828231933593 8.344858702148438 4.874959231933594 Q 8.283955702148436 4.861090231933594 8.229685702148437 4.833955231933594 Q 8.175415702148436 4.806820231933593 8.128381702148436 4.7646102319335935 L 8.170591702148437 4.695868231933593 Q 8.193505702148437 4.719988231933594 8.225464702148438 4.741093231933593 Q 8.257423702148436 4.762198231933594 8.296618702148438 4.779082231933594 Q 8.335813702148437 4.795966231933593 8.381038702148437 4.805011231933594 Q 8.426263702148438 4.814056231933594 8.474503702148438 4.814056231933594 Q 8.577013702148436 4.814056231933594 8.634298702148437 4.776670231933593 Q 8.691583702148437 4.739284231933594 8.691583702148437 4.665718231933593 Q 8.691583702148437 4.612654231933593 8.662639702148438 4.580695231933594 Q 8.633695702148437 4.548736231933594 8.575807702148436 4.5282342319335935 Q 8.517919702148436 4.507732231933594 8.433499702148437 4.488436231933593 Q 8.344255702148438 4.467934231933594 8.282749702148436 4.442608231933594 Q 8.221243702148437 4.417282231933593 8.190490702148438 4.375675231933593 Q 8.159737702148437 4.3340682319335935 8.159737702148437 4.265326231933594 Q 8.159737702148437 4.185730231933594 8.198932702148436 4.130857231933594 Q 8.238127702148438 4.075984231933593 8.306869702148436 4.047643231933593 Q 8.375611702148436 4.019302231933594 8.464855702148437 4.019302231933594 Q 8.521537702148438 4.019302231933594 8.570380702148437 4.030759231933594 Q 8.619223702148437 4.042216231933594 8.660830702148436 4.063924231933593 Q 8.702437702148437 4.085632231933594 8.738617702148437 4.118194231933593 L 8.697613702148438 4.185730231933594 M 9.547865490234376 4.100104231933593 L 9.242747490234375 4.100104231933593 L 9.242747490234375 4.881592231933594 L 9.158327490234376 4.881592231933594 L 9.158327490234376 4.100104231933593 L 8.853209490234375 4.100104231933593 L 8.853209490234375 4.025332231933594 L 9.547865490234376 4.025332231933594 L 9.547865490234376 4.100104231933593 M 9.68774382421875 4.881592231933594 L 9.68774382421875 4.025332231933594 L 9.77216382421875 4.025332231933594 L 9.77216382421875 4.881592231933594 L 9.68774382421875 4.881592231933594 M 10.606698747070313 4.100104231933593 L 10.301580747070313 4.100104231933593 L 10.301580747070313 4.881592231933594 L 10.217160747070313 4.881592231933594 L 10.217160747070313 4.100104231933593 L 9.912042747070313 4.100104231933593 L 9.912042747070313 4.025332231933594 L 10.606698747070313 4.025332231933594 L 10.606698747070313 4.100104231933593 M 11.095111081054688 4.887622231933594 Q 10.993807081054687 4.887622231933594 10.923859081054687 4.851442231933594 Q 10.853911081054687 4.815262231933594 10.812907081054687 4.754359231933593 Q 10.771903081054687 4.6934562319335935 10.753210081054688 4.616272231933594 Q 10.734517081054687 4.539088231933594 10.734517081054687 4.457080231933594 L 10.734517081054687 4.025332231933594 L 10.817731081054687 4.025332231933594 L 10.817731081054687 4.457080231933594 Q 10.817731081054687 4.523410231933593 10.831600081054686 4.5873282319335935 Q 10.845469081054688 4.651246231933594 10.876825081054687 4.701898231933594 Q 10.908181081054687 4.7525502319335935 10.961245081054686 4.7820972319335935 Q 11.014309081054687 4.8116442319335935 11.093905081054688 4.8116442319335935 Q 11.175913081054688 4.8116442319335935 11.229580081054687 4.780891231933594 Q 11.283247081054688 4.750138231933594 11.314000081054687 4.6994862319335935 Q 11.344753081054687 4.648834231933593 11.358019081054687 4.585519231933594 Q 11.371285081054687 4.5222042319335936 11.371285081054687 4.457080231933594 L 11.371285081054687 4.025332231933594 L 11.455705081054687 4.025332231933594 L 11.455705081054687 4.457080231933594 Q 11.455705081054687 4.542706231933593 11.436409081054688 4.621096231933594 Q 11.417113081054687 4.6994862319335935 11.374300081054686 4.7585802319335935 Q 11.331487081054687 4.8176742319335935 11.262745081054687 4.8526482319335935 Q 11.194003081054687 4.887622231933594 11.095111081054688 4.887622231933594 M 12.276996969726563 4.100104231933593 L 11.971878969726562 4.100104231933593 L 11.971878969726562 4.881592231933594 L 11.887458969726563 4.881592231933594 L 11.887458969726563 4.100104231933593 L 11.582340969726562 4.100104231933593 L 11.582340969726562 4.025332231933594 L 12.276996969726563 4.025332231933594 L 12.276996969726563 4.100104231933593 M 12.992137303710937 4.806820231933593 L 12.992137303710937 4.881592231933594 L 12.416875303710937 4.881592231933594 L 12.416875303710937 4.025332231933594 L 12.981283303710937 4.025332231933594 L 12.981283303710937 4.100104231933593 L 12.501295303710936 4.100104231933593 L 12.501295303710936 4.408840231933594 L 12.919777303710937 4.408840231933594 L 12.919777303710937 4.479994231933594 L 12.501295303710936 4.479994231933594 L 12.501295303710936 4.806820231933593 L 12.992137303710937 4.806820231933593" fill="#3682ae" fill-rule="nonzero"></path></g><g clip-path="url(#SvgjsClipPath1002)"><g clip-path="url(#SvgjsClipPath1000cf0d8c85-db7e-4454-a5a8-c518b94c49a9)"><path d=" M -3.4826231849798703 4.839038416666693 C -2.4308462798313784 4.846533946308167 -1.4784607024450525 4.218723061567257 -1.0707674159254967 3.249147368134698 C -0.6630741294059401 2.2795716747021397 -0.8806317985853784 1.1598156943234408 -1.6217183458550046 0.41343672180054947 C -2.3628048931246317 -0.33294225072234196 -3.4809843953353936 -0.5584625288534707 -4.453436661714599 -0.15767900775724153 C -5.425888928093803 0.24310451333898764 -6.0604610368669585 1.1909985125708848 -6.0604500791434335 2.242802125917156 C -6.065491328075462 3.671562849344569 -4.9113836073763215 4.833912561304416 -3.4826231849798823 4.839038416666693 Z M -3.4826231849798703 4.927040910952668 C -2.007696516237977 4.916409433900851 -0.8176399581208083 3.7177438665581186 -0.8176399581208118 2.242778881729543 C -0.8176399581208136 0.767813896900968 -2.007696516237986 -0.4308516704417596 -3.482623184979878 -0.4414831474935723 C -4.954584609478994 -0.4414831474935723 -6.147801736176369 0.7602878402437503 -6.147801736176369 2.242802125917156 C -6.153048752723994 3.7199962408718013 -4.959817183796021 4.9217612991293045 -3.482623184979899 4.927040910952668 Z" fill="#3682ae" transform="matrix(1,0,0,1,0,0)" fill-rule="evenodd"></path></g><g clip-path="url(#SvgjsClipPath1000cf0d8c85-db7e-4454-a5a8-c518b94c49a9)"><path d=" M -3.8758218625661245 4.927040910952668 C -2.824044957417633 4.934536440594142 -1.871659380031308 4.306725555853232 -1.4639660935117522 3.3371498624206737 C -1.0562728069921956 2.367574168988115 -1.2738304761716321 1.2478181886094162 -2.0149170234412592 0.5014392160865249 C -2.7560035707108863 -0.24493975643636642 -3.874183072921648 -0.4704600345674952 -4.846635339300853 -0.06967651347126608 C -5.819087605680058 0.33110700762496303 -6.453659714453213 1.2790010068568602 -6.453648756729688 2.3308046202031316 C -6.458715716129637 3.7595758865489812 -5.304593010568357 4.921940690384513 -3.875821862566191 4.927040910952668 Z M -3.8758218625661245 5.015043405238643 C -2.7883972948273317 5.022783747047638 -1.8037377991681085 4.373687656220536 -1.3822327754609534 3.371247823411179 C -0.9607277517537991 2.3688079906018222 -1.1856646356806584 1.2111018725527833 -1.951871479520718 0.43942890045522676 C -2.7180783233607766 -0.3322440716423299 -3.8741562121873825 -0.5654049012967156 -4.879567012981859 -0.15103643596781396 C -5.884977813776337 0.2633320293610879 -6.541057020316139 1.243352504792599 -6.5410469021378415 2.330804620203132 C -6.546268180031968 3.808006282059718 -5.353023316992442 5.009763767397571 -3.875821862566167 5.015043405238643 Z" fill="#3682ae" transform="matrix(1,0,0,1,0,0)" fill-rule="evenodd"></path></g><g clip-path="url(#SvgjsClipPath1000cf0d8c85-db7e-4454-a5a8-c518b94c49a9)"><path d=" M -3.395225039571717 5.235072885141191 C -2.3434523659708644 5.242568384653971 -1.391069761809991 4.6147625177577645 -0.9833737753735825 3.645192550148374 C -0.5756777889371749 2.6756225825389834 -0.7932269393148177 1.5558702892225067 -1.534303822889358 0.809487684871441 C -2.2753807064638973 0.06310508052037589 -3.3935525442567718 -0.16242667419378803 -4.366006280272702 0.23834217533807245 C -5.338460016288632 0.6391110248699325 -5.973044058501101 1.586990724297463 -5.97305193373528 2.6387901060164354 C -5.978144632146615 4.067579500182855 -4.8240144070006625 5.229972690818846 -3.3952250395718186 5.235072885141191 Z M -3.395225039571717 5.323075379427166 C -2.307804703382658 5.330815691127935 -1.3231481809225327 4.681724618149298 -0.9016404572837811 3.6792905111399494 C -0.48013273364502584 2.6768564041306013 -0.7050610987801891 1.5191539731054917 -1.4712582789572126 0.7474773691634446 C -2.237455459134236 -0.024199234778602696 -3.3935256835821024 -0.2573715410005982 -4.398937954020857 0.1569822527963708 C -5.404350224459612 0.5713360465933393 -6.060441364407001 1.5513422222505941 -6.0604500791434335 2.6387901060164354 C -6.065697095528252 4.116009895723847 -4.872444713141444 5.317795767440668 -3.395225039571722 5.323075379427166 Z" fill="#3682ae" transform="matrix(1,0,0,1,0,0)" fill-rule="evenodd"></path></g></g></g><defs><clipPath id="SvgjsClipPath1002"><path d=" M -6.5410469021378415 -0.4414831474935723 h 5.811046902137841 v 5.764558526920738 h -5.811046902137841 Z"></path></clipPath><clipPath id="SvgjsClipPath1000cf0d8c85-db7e-4454-a5a8-c518b94c49a9"><path d=" M -6.5410469021378415 -0.4414831474935723 L -0.7300000000000004 -0.4414831474935723 L -0.7300000000000004 5.323075379427166 L -6.5410469021378415 5.323075379427166 Z"></path></clipPath></defs></svg>